<svg id="DESIGN" xmlns="http://www.w3.org/2000/svg" viewBox="0 0 110 110"><defs><style>.cls-1{fill:#760e00;}.cls-2{fill:#f93;}</style></defs><circle class="cls-1" cx="55" cy="55" r="54.5"/><rect class="cls-2" x="57.78" y="30.09" width="2.58" height="42.42" transform="translate(-18.97 56.79) rotate(-45)"/><rect class="cls-2" x="54.62" y="33.24" width="2.58" height="42.42" transform="translate(-22.13 55.49) rotate(-45)"/><rect class="cls-2" x="51.47" y="36.4" width="2.58" height="42.42" transform="translate(-25.28 54.17) rotate(-45)"/><path class="cls-2" d="M43.14,65.79,23.83,46.48l-6.44,6.44-2.65-2.65L39.58,25.43l2.65,2.65L28,42.33a1,1,0,0,0,0,1.43l18.6,18.59Z"/><path class="cls-2" d="M72.31,83.43l-2.65-2.65L83.91,66.53a1,1,0,0,0,0-1.42l-18.6-18.6,3.44-3.44L88.06,62.38l6.44-6.44,2.65,2.65Z"/></svg>