<svg id="DESIGN" xmlns="http://www.w3.org/2000/svg" viewBox="0 0 110 110"><defs><style>.cls-1{fill:#231f20;}.cls-2{fill:#fff;}</style></defs><g id="Layer_11" data-name="Layer 11"><circle class="cls-1" cx="55" cy="55" r="54.5"/></g><rect class="cls-2" x="56.83" y="30.66" width="2.58" height="42.42" transform="translate(-19.65 56.29) rotate(-45)"/><rect class="cls-2" x="53.68" y="33.81" width="2.58" height="42.42" transform="translate(-22.81 54.98) rotate(-45)"/><rect class="cls-2" x="50.52" y="36.97" width="2.58" height="42.42" transform="translate(-25.96 53.67) rotate(-45)"/><path class="cls-2" d="M42.2,66.36,22.89,47.05l-6.44,6.44-2.66-2.65L38.63,26l2.65,2.65L27,42.9a1,1,0,0,0,0,1.42l18.6,18.6Z"/><path class="cls-2" d="M71.37,84l-2.65-2.65L83,67.1a1,1,0,0,0,0-1.42l-18.6-18.6,3.44-3.44L87.12,63l6.44-6.44,2.65,2.65Z"/></svg>