<svg id="DESIGN" xmlns="http://www.w3.org/2000/svg" viewBox="0 0 141.73 164.41"><defs><style>.cls-1{fill:#f93;}</style></defs><path class="cls-1" d="M50,122.67H28.15a1.48,1.48,0,0,1-1.48-1.48V104.08h-2v36.07h2V125.58H50Z"/><path class="cls-1" d="M50,106.39v-2.23h-9.5c-3.69,0-4.75,2.9-4.75,4.94a10.21,10.21,0,0,0,4.47,8.57l-10.37-.25-1.4,1.68v.56H50v-3s-12.7,3.74-12.7-7c0-1.74.35-3.23,3.53-3.23Z"/><path class="cls-1" d="M49.86,83a21.56,21.56,0,0,0-.56-11l-2.82,1c1.6,4.09,3.66,12.51-2.32,13.79a5.44,5.44,0,0,1-1.37.08c-.29-1.47.57-2.79,1.29-4,1.7-3.13,2-9-1.79-10.67C37,70.36,35,77.81,35.84,81.76a7.39,7.39,0,0,0,8.5,6.2C47.05,87.86,49.23,85.55,49.86,83ZM38.51,75.12a2.6,2.6,0,0,1,1.89-1.88,2,2,0,0,1,2.23,1.1c.86,2.32.13,5.25-.46,7.61-.56,1.43-.94,3.48,0,4.82C37.93,85.82,37.26,78.74,38.51,75.12Z"/><path class="cls-1" d="M40.27,99.9H35.56l-1.39,1.68v.56H50V99.9H41.8c-6-.8-3.33-11.34-3.33-11.34H36.13S33.31,97.74,40.27,99.9Z"/><path class="cls-1" d="M49.86,64.87a21.56,21.56,0,0,0-.56-11l-2.82,1c1.6,4.09,3.66,12.51-2.32,13.79a5,5,0,0,1-1.37.08c-.29-1.47.57-2.79,1.29-4,1.7-3.13,2-9-1.79-10.67C37,52.19,35,59.64,35.84,63.59a7.39,7.39,0,0,0,8.5,6.2C47.05,69.69,49.23,67.38,49.86,64.87ZM38.51,57a2.6,2.6,0,0,1,1.89-1.88,2,2,0,0,1,2.23,1.1c.86,2.32.13,5.25-.46,7.61-.56,1.44-.94,3.48,0,4.82C37.93,67.65,37.26,60.58,38.51,57Z"/><path class="cls-1" d="M58.65,41.67c3.13,1.7,8.95,2,10.67-1.79,1.78-5.3-5.67-7.29-9.63-6.45a7.4,7.4,0,0,0-6.19,8.5c.1,2.71,2.41,4.89,4.92,5.52a21.56,21.56,0,0,0,11-.56l-1-2.82c-4.09,1.6-12.52,3.66-13.8-2.32a5,5,0,0,1-.07-1.37C56.07,40.09,57.39,41,58.65,41.67Zm7.69-5.57A2.6,2.6,0,0,1,68.22,38a2,2,0,0,1-1.1,2.23c-2.32.86-5.25.13-7.62-.45-1.43-.57-3.47-1-4.82,0C55.63,35.52,62.71,34.86,66.34,36.1Z"/><path class="cls-1" d="M39.26,36.56V23.84H36.13V47.57h3.13V40.73c0-1.95,1.82-2.68,3.1-1.19l8.54,8h3.4L42.81,36,54.3,23.84H51.81Z"/><path class="cls-1" d="M85.85,46V33.26H83.62v9.59s-.19,4.29-6,3.36-2-11.71-1.54-13H71.59v9.5c0,3.69,3.8,5.38,6.26,5.38a6.89,6.89,0,0,0,5.75-3.06c0,.59,0,1.19,0,1.19,0,3.75.5,10.53-4.42,11.46-3.16.59-4.74-2.95-5.67-4.42-.53-.84-2.25.11-2.25.11.33,2.31,2.94,5.24,7.6,5.24A6.5,6.5,0,0,0,84.62,55C86.1,52.24,85.85,49.06,85.85,46Z"/><path class="cls-1" d="M76.07,33.26h0C76.14,33.09,76.13,33.11,76.07,33.26Z"/><path class="cls-1" d="M82.1,133.87c-.6-3.16,2.94-4.75,4.41-5.67.84-.53-.11-2.25-.11-2.25-2.31.32-5.24,2.94-5.24,7.6a6.51,6.51,0,0,0,3.64,5.77c2.78,1.48,6,1.23,9,1.23h12.75v-2.23H97s-4.29-.19-3.36-6,11.71-2.05,13-1.54v-4.47h-9.5c-3.69,0-5.38,3.8-5.38,6.26a6.89,6.89,0,0,0,3.06,5.75l-1.19,0C89.8,138.23,83,138.78,82.1,133.87Z"/><path class="cls-1" d="M106.56,130.76v0C106.73,130.84,106.71,130.83,106.56,130.76Z"/><path class="cls-1" d="M92.65,61.23a21.52,21.52,0,0,0,.56,11l2.82-1c-1.6-4.09-3.66-12.51,2.32-13.79a5.44,5.44,0,0,1,1.37-.08c.29,1.47-.57,2.79-1.29,4.06-1.7,3.13-2,8.95,1.79,10.67,5.3,1.77,7.29-5.68,6.45-9.63a7.38,7.38,0,0,0-8.5-6.19C95.46,56.4,93.28,58.71,92.65,61.23ZM104,69.15A2.61,2.61,0,0,1,102.11,71a2,2,0,0,1-2.23-1.1c-.86-2.32-.13-5.24.46-7.61.56-1.43.94-3.47,0-4.82C104.58,58.44,105.25,65.52,104,69.15Z"/><path class="cls-1" d="M100.56,100c1.7-3.13,2-8.95-1.79-10.67-5.3-1.78-7.29,5.67-6.45,9.63a7.78,7.78,0,0,0,2.8,4.74l-2.54-.49v3.3l6.52-1.26a7.16,7.16,0,0,0,1.72-.1,6.29,6.29,0,0,0,5.51-4.92,21.35,21.35,0,0,0-.56-11l-2.82,1c1.61,4.09,3.67,12.52-2.31,13.8a5.49,5.49,0,0,1-1.38.08C99,102.55,99.84,101.23,100.56,100ZM95,92.27a2.62,2.62,0,0,1,1.89-1.88,2,2,0,0,1,2.23,1.1c.86,2.32.12,5.25-.46,7.62-.56,1.43-.94,3.47,0,4.82C94.41,103,93.74,95.9,95,92.27Z"/><path class="cls-1" d="M100.71,76.47c6,.8,3.33,11.34,3.33,11.34h2.34s2.82-9.18-4.14-11.34H107l1.39-1.68v-.56H92.52v2.24Z"/><path class="cls-1" d="M95.14,109.91a6,6,0,0,0-.93,1c-4.18,4.65-1.38,13.72,5.32,13.75s9.5-9.1,5.32-13.75a6.57,6.57,0,0,0-1.5-1.39,13.21,13.21,0,0,1,3.18,1.14v-2.35H86v2.42C89.08,111.65,92.13,110.76,95.14,109.91Zm9.2,6.55c.06,3-1.13,7-4.81,7.07-3.68-.08-4.82-4.1-4.76-7.07,0-2.51.63-6,3.48-7a8,8,0,0,1,1.28-.21,7.83,7.83,0,0,1,1.27.21C103.67,110.4,104.39,113.93,104.34,116.46Z"/><rect class="cls-1" x="35.36" y="130.51" width="39.78" height="1.7"/><rect class="cls-1" x="35.36" y="134.32" width="39.78" height="1.7"/><rect class="cls-1" x="35.36" y="138.14" width="39.78" height="1.7"/><path class="cls-1" d="M92.49,32.73v2.91h21.84a1.48,1.48,0,0,1,1.48,1.48v17.2h2V24h-2v8.78Z"/><path class="cls-1" d="M114,39.21v-.56H92.49v3s12.7-3.75,12.7,7c0,1.73-.35,3.22-3.54,3.22H92.49v2.24H102c3.68,0,4.75-2.91,4.75-4.95a10.19,10.19,0,0,0-4.47-8.56l10.37.24Z"/></svg>